<svg xmlns="http://www.w3.org/2000/svg" viewBox="0 0 64 64" id="dimond">
  <path d="M31.231 62.641a1 1 0 001.538 0l30-36a1 1 0 00.012-1.265l-8-10a1.006 1.006 0 00-.41-.3l-10-4A1 1 0 0044 11H24.19A4.733 4.733 0 0121.2 7.689l-.233-.932a1 1 0 00-1.94 0l-.233.932a4.74 4.74 0 01-3.113 3.362.994.994 0 00-.309 1.722l-5.746 2.3a1.006 1.006 0 00-.41.3l-8 10a1 1 0 00.012 1.265zM12 28.022A6.713 6.713 0 0010.163 26 6.713 6.713 0 0012 23.978 6.713 6.713 0 0013.837 26 6.713 6.713 0 0012 28.022zm-1.124 2.606l.154.615A1 1 0 0012 32a.989.989 0 00.887-.568l3.386 1.355L27.25 54.738 5.3 28.4zM20.78 21H43.22l2.5 10H18.279zM58.7 28.4L36.75 54.738 47.727 32.787zM32 59.764L18.616 33H45.384zM60.377 25.573L47.694 30.646 45.182 20.6l8.5-3.4zM24.19 13H43.808l7.5 3-7.5 3H20.193l-7.5-3 4.817-1.927A4.741 4.741 0 0118.8 16.311l.233.932a1 1 0 001.94 0l.233-.932A4.733 4.733 0 0124.19 13zM20 9.978A6.713 6.713 0 0021.837 12 6.713 6.713 0 0020 14.022 6.713 6.713 0 0018.163 12 6.713 6.713 0 0020 9.978zM10.317 17.2l8.5 3.4L16.306 30.646l-2.82-1.128a4.726 4.726 0 012.83-2.569 1 1 0 000-1.9A4.74 4.74 0 0113.2 21.689l-.233-.932a1 1 0 00-1.94 0l-.233.932a4.74 4.74 0 01-3.113 3.362 1 1 0 000 1.9 4.751 4.751 0 011.562.873l-5.623-2.25zM58.2 2.689l-.233-.932a1 1 0 00-1.94 0l-.233.932a4.74 4.74 0 01-3.113 3.362 1 1 0 000 1.9A4.74 4.74 0 0155.8 11.311l.233.932a1 1 0 001.94 0l.233-.932a4.74 4.74 0 013.113-3.362 1 1 0 000-1.9A4.74 4.74 0 0158.2 2.689zM57 9.022A6.713 6.713 0 0055.163 7 6.713 6.713 0 0057 4.978 6.713 6.713 0 0058.837 7 6.713 6.713 0 0057 9.022zM45.8 58.311l.233.932a1 1 0 001.94 0l.233-.933a4.745 4.745 0 013.113-3.362 1 1 0 000-1.9A4.745 4.745 0 0148.2 49.689l-.233-.932a1 1 0 00-1.94 0l-.233.933a4.745 4.745 0 01-3.113 3.362 1 1 0 000 1.9A4.745 4.745 0 0145.8 58.311zM47 51.978A6.713 6.713 0 0048.837 54 6.713 6.713 0 0047 56.022 6.713 6.713 0 0045.163 54 6.713 6.713 0 0047 51.978z"></path>
</svg>
